<svg width="13.000977" height="12.000000" viewBox="0 0 13.001 12" fill="none" xmlns="http://www.w3.org/2000/svg" xmlns:xlink="http://www.w3.org/1999/xlink">
	<desc>
			Created with Pixso.
	</desc>
	<defs/>
	<path id="Star" d="M12.27 5.31C11.69 5.79 11.11 6.28 10.53 6.77C10.26 7 9.99 7.22 9.71 7.45C9.67 7.48 9.66 7.51 9.68 7.56C9.89 8.43 10.09 9.31 10.3 10.18C10.34 10.36 10.38 10.53 10.43 10.71C10.49 10.97 10.41 11.22 10.2 11.37C9.96 11.53 9.72 11.54 9.47 11.4C8.69 10.95 7.91 10.51 7.13 10.06C6.95 9.95 6.76 9.85 6.58 9.74C6.52 9.71 6.48 9.71 6.42 9.74C5.47 10.29 4.52 10.83 3.57 11.37C3.37 11.49 3.16 11.53 2.94 11.45C2.65 11.33 2.49 11.03 2.57 10.73C2.77 9.86 2.98 8.99 3.19 8.11C3.23 7.93 3.27 7.75 3.32 7.57C3.33 7.51 3.32 7.48 3.28 7.45C2.92 7.15 2.57 6.85 2.21 6.56C1.72 6.14 1.22 5.72 0.72 5.3C0.52 5.13 0.45 4.91 0.53 4.66C0.61 4.41 0.8 4.26 1.07 4.23C1.56 4.19 2.05 4.15 2.54 4.1C3.02 4.06 3.51 4.02 3.99 3.98C4.15 3.96 4.31 3.95 4.47 3.94C4.53 3.93 4.55 3.91 4.57 3.87C5.01 2.88 5.45 1.9 5.89 0.91C6.01 0.64 6.23 0.49 6.5 0.5C6.78 0.5 6.98 0.63 7.09 0.87C7.38 1.53 7.68 2.19 7.97 2.85C8.12 3.19 8.27 3.52 8.42 3.86C8.44 3.91 8.48 3.93 8.53 3.94C8.92 3.97 9.31 4 9.7 4.04C10.26 4.09 10.83 4.14 11.4 4.18C11.58 4.2 11.76 4.22 11.93 4.23C12.26 4.27 12.5 4.53 12.5 4.89C12.49 5.03 12.41 5.18 12.27 5.31Z" stroke="#C69B7B" stroke-opacity="1.000000" stroke-width="1.000000" stroke-linejoin="round"/>
</svg>
