<svg width="18.000000" height="18.000000" viewBox="0 0 18 18" fill="none" xmlns="http://www.w3.org/2000/svg" xmlns:xlink="http://www.w3.org/1999/xlink">
	<desc>
			Created with Pixso.
	</desc>
	<defs/>
	<path id="Vector" d="M16.31 9C16.31 13.03 13.03 16.31 9 16.31L9 18C13.97 18 18 13.97 18 9L16.31 9ZM9 16.31C4.96 16.31 1.68 13.03 1.68 9L0 9C0 13.97 4.02 18 9 18L9 16.31ZM1.68 9C1.68 4.96 4.96 1.68 9 1.68L9 0C4.02 0 0 4.02 0 9L1.68 9ZM9 1.68C13.03 1.68 16.31 4.96 16.31 9L18 9C18 4.02 13.97 0 9 0L9 1.68Z" fill="#595667" fill-opacity="1.000000" fill-rule="nonzero"/>
	<path id="Vector" d="M10.68 6.75C10.68 7.68 9.93 8.43 9 8.43L9 10.12C10.86 10.12 12.37 8.61 12.37 6.75L10.68 6.75ZM9 8.43C8.06 8.43 7.31 7.68 7.31 6.75L5.62 6.75C5.62 8.61 7.13 10.12 9 10.12L9 8.43ZM7.31 6.75C7.31 5.81 8.06 5.06 9 5.06L9 3.37C7.13 3.37 5.62 4.88 5.62 6.75L7.31 6.75ZM9 5.06C9.93 5.06 10.68 5.81 10.68 6.75L12.37 6.75C12.37 4.88 10.86 3.37 9 3.37L9 5.06Z" fill="#595667" fill-opacity="1.000000" fill-rule="nonzero"/>
	<path id="Vector" d="M2.94 14.08C2.65 14.44 2.69 14.97 3.05 15.27C3.41 15.57 3.94 15.52 4.24 15.16L2.94 14.08ZM13.75 15.16C14.05 15.52 14.58 15.57 14.94 15.27C15.3 14.97 15.34 14.44 15.05 14.08L13.75 15.16ZM4.24 15.16C5.38 13.8 7.08 12.93 9 12.93L9 11.25C6.56 11.25 4.39 12.35 2.94 14.08L4.24 15.16ZM9 12.93C10.91 12.93 12.61 13.8 13.75 15.16L15.05 14.08C13.6 12.35 11.43 11.25 9 11.25L9 12.93Z" fill="#595667" fill-opacity="1.000000" fill-rule="nonzero"/>
</svg>
