<svg width="19.792969" height="19.792725" viewBox="0 0 19.793 19.7927" fill="none" xmlns="http://www.w3.org/2000/svg" xmlns:xlink="http://www.w3.org/1999/xlink">
	<desc>
			Created with Pixso.
	</desc>
	<defs/>
	<path id="Instagram" d="M0.942383 2.54297C0 3.96655 0 5.94312 0 9.89624C0 13.8496 0 15.8262 0.942383 17.2498C1.3623 17.8855 1.90723 18.4299 2.54297 18.8506C3.9668 19.7927 5.94336 19.7927 9.89648 19.7927C13.8496 19.7927 15.8262 19.7927 17.25 18.8506C17.8857 18.4299 18.4297 17.8855 18.8506 17.2498C19.793 15.8262 19.793 13.8496 19.793 9.89624C19.793 5.94312 19.793 3.96655 18.8506 2.54297C18.4297 1.90723 17.8857 1.36255 17.25 0.941895C15.8262 0 13.8496 0 9.89648 0C5.94336 0 3.9668 0 2.54297 0.941895C1.90723 1.36255 1.3623 1.90723 0.942383 2.54297ZM15.2227 3.31201C14.5576 3.31201 14.0186 3.85107 14.0186 4.51587C14.0186 5.18091 14.5576 5.71973 15.2227 5.71973C15.8877 5.71973 16.4268 5.18091 16.4268 4.51587C16.4268 3.85107 15.8877 3.31201 15.2227 3.31201ZM15.0195 9.89673C15.0195 12.7263 12.7256 15.0203 9.89648 15.0203C7.06641 15.0203 4.77246 12.7263 4.77246 9.89673C4.77246 7.06714 7.06641 4.77319 9.89648 4.77319C12.7256 4.77319 15.0195 7.06714 15.0195 9.89673ZM9.89648 13.2869C11.7686 13.2869 13.2861 11.769 13.2861 9.89673C13.2861 8.02441 11.7686 6.50659 9.89648 6.50659C8.02344 6.50659 6.50586 8.02441 6.50586 9.89673C6.50586 11.769 8.02344 13.2869 9.89648 13.2869Z" clip-rule="evenodd" fill="#C69B7B" fill-opacity="1.000000" fill-rule="evenodd"/>
</svg>
