<svg width="20.000000" height="20.000000" viewBox="0 0 20 20" fill="none" xmlns="http://www.w3.org/2000/svg" xmlns:xlink="http://www.w3.org/1999/xlink">
	<desc>
			Created with Pixso.
	</desc>
	<defs>
		<clipPath id="clip52_2524">
			<rect id="Line Rounded/Shopping cart" rx="0.000000" width="19.000000" height="19.000000" transform="translate(0.500000 0.500000)" fill="white" fill-opacity="0"/>
		</clipPath>
	</defs>
	<rect id="Line Rounded/Shopping cart" rx="0.000000" width="19.000000" height="19.000000" transform="translate(0.500000 0.500000)" fill="#FFFFFF" fill-opacity="0"/>
	<g clip-path="url(#clip52_2524)">
		<path id="Vector" d="M4.98 4.54L18.55 4.54L16.62 12.75C16.37 13.82 15.42 14.57 14.32 14.57L9.45 14.57C8.38 14.57 7.44 13.85 7.17 12.81L4.98 4.54L4.09 1L1.44 1" stroke="#595667" stroke-opacity="1.000000" stroke-width="1.500000" stroke-linejoin="round" stroke-linecap="round"/>
		<path id="Vector" d="M8.82 17.81C8.82 18.47 8.29 19 7.64 19C6.98 19 6.45 18.47 6.45 17.81C6.45 17.16 6.98 16.63 7.64 16.63C8.29 16.63 8.82 17.16 8.82 17.81Z" fill="#595667" fill-opacity="1.000000" fill-rule="evenodd"/>
		<path id="Vector" d="M17.08 17.81C17.08 18.47 16.55 19 15.9 19C15.25 19 14.72 18.47 14.72 17.81C14.72 17.16 15.25 16.63 15.9 16.63C16.55 16.63 17.08 17.16 17.08 17.81Z" fill="#595667" fill-opacity="1.000000" fill-rule="evenodd"/>
	</g>
</svg>
