<svg width="20.000000" height="18.000000" viewBox="0 0 20 18" fill="none" xmlns="http://www.w3.org/2000/svg" xmlns:xlink="http://www.w3.org/1999/xlink">
	<desc>
			Created with Pixso.
	</desc>
	<defs/>
	<path id="LinkedIn" d="M0 2.09C0 1.48 0.22 0.98 0.67 0.59C1.12 0.19 1.71 0 2.43 0C3.14 0 3.71 0.19 4.15 0.58C4.6 0.98 4.82 1.5 4.82 2.14C4.82 2.72 4.6 3.21 4.16 3.6C3.71 4 3.12 4.19 2.39 4.19L2.37 4.19C1.66 4.19 1.09 4 0.65 3.6C0.21 3.19 0 2.69 0 2.09ZM0.25 18L0.25 5.85L4.53 5.85L4.53 18L0.25 18ZM6.91 18L11.19 18L11.19 11.21C11.19 10.79 11.24 10.46 11.35 10.23C11.53 9.82 11.8 9.47 12.17 9.19C12.53 8.9 12.99 8.76 13.55 8.76C14.99 8.76 15.71 9.67 15.71 11.5L15.71 18L20 18L20 11.03C20 9.24 19.54 7.88 18.64 6.95C17.74 6.02 16.55 5.56 15.07 5.56C13.41 5.56 12.12 6.23 11.19 7.58L11.19 7.61L11.17 7.61L11.19 7.58L11.19 5.85L6.91 5.85C6.93 6.24 6.95 7.44 6.95 9.47C6.95 11.49 6.93 14.33 6.91 18Z" fill="#C69B7B" fill-opacity="1.000000" fill-rule="evenodd"/>
</svg>
