<svg width="145.000000" height="38.327148" viewBox="0 0 145 38.3271" fill="none" xmlns="http://www.w3.org/2000/svg" xmlns:xlink="http://www.w3.org/1999/xlink">
	<desc>
			Created with Pixso.
	</desc>
	<defs/>
	<path id="Rectangle 5935" d="M7.73 16.63C10.07 14.29 13.87 14.29 16.21 16.63L18.1 18.52C18.49 18.91 18.49 19.54 18.1 19.93L16.21 21.82C13.87 24.16 10.07 24.16 7.73 21.82L5.84 19.93C5.45 19.54 5.45 18.91 5.84 18.52L7.73 16.63ZM9.49 18.4C10.86 17.03 13.08 17.03 14.44 18.4L15.27 19.22L14.44 20.05C13.08 21.42 10.86 21.42 9.49 20.05L8.67 19.22L9.49 18.4Z" fill="#3A3845" fill-opacity="1.000000" fill-rule="evenodd"/>
	<path id="Rectangle 5936" d="M23.81 16.63C26.16 14.29 29.96 14.29 32.3 16.63L34.19 18.52C34.58 18.91 34.58 19.54 34.19 19.93L32.3 21.82C29.96 24.16 26.16 24.16 23.81 21.82L21.93 19.93C21.54 19.54 21.54 18.91 21.93 18.52L23.81 16.63ZM25.58 18.4C26.95 17.03 29.16 17.03 30.53 18.4L31.36 19.22L30.53 20.05C29.16 21.42 26.95 21.42 25.58 20.05L24.75 19.22L25.58 18.4Z" fill="#3A3845" fill-opacity="1.000000" fill-rule="evenodd"/>
	<path id="Rectangle 5937" d="M22.61 6.94C24.95 9.28 24.95 13.08 22.61 15.42L20.72 17.31C20.33 17.7 19.7 17.7 19.31 17.31L17.42 15.42C15.08 13.08 15.08 9.28 17.42 6.94L19.31 5.05C19.7 4.66 20.33 4.66 20.72 5.05L22.61 6.94ZM20.84 8.7C22.21 10.07 22.21 12.29 20.84 13.65L20.01 14.48L19.19 13.65C17.82 12.29 17.82 10.07 19.19 8.7L20.01 7.88L20.84 8.7Z" fill="#3A3845" fill-opacity="1.000000" fill-rule="evenodd"/>
	<path id="Rectangle 5938" d="M22.5 22.23C24.84 24.57 24.84 28.37 22.5 30.71L20.61 32.6C20.22 32.99 19.59 32.99 19.2 32.6L17.31 30.71C14.97 28.37 14.97 24.57 17.31 22.23L19.2 20.34C19.59 19.95 20.22 19.95 20.61 20.34L22.5 22.23ZM20.73 23.99C22.1 25.36 22.1 27.58 20.73 28.94L19.91 29.77L19.08 28.94C17.71 27.58 17.71 25.36 19.08 23.99L19.91 23.17L20.73 23.99Z" fill="#3A3845" fill-opacity="1.000000" fill-rule="evenodd"/>
	<path id="Ellipse 6" d="M40.3 19.16C40.3 21.16 38.53 22.47 37.98 24.29C37.33 26.45 37.78 29.09 36.47 30.88C35.18 32.65 32.52 33.06 30.72 34.33C29.24 35.37 28.69 37.37 26.94 37.99C25.54 38.49 24.06 38.33 22.54 38.16C21.75 38.07 20.96 37.99 20.15 37.99C19.34 37.99 18.54 38.07 17.76 38.16C16.23 38.33 14.75 38.49 13.35 37.99C11.39 37.29 10.34 35.55 8.72 34.33C7.15 33.14 4.98 32.47 3.82 30.88C2.51 29.09 2.58 26.45 1.93 24.29C1.37 22.47 0 21.16 0 19.16C0 17.16 1.76 15.22 2.31 13.4C2.97 11.23 2.51 9.22 3.82 7.44C4.98 5.85 7.15 5.33 8.72 4.14C10.34 2.92 11.39 1.03 13.35 0.33C14.75 -0.17 16.23 -0.01 17.76 0.16C18.54 0.24 19.34 0.33 20.15 0.33C20.96 0.33 21.75 0.24 22.54 0.16C24.06 -0.01 25.54 -0.17 26.94 0.33C28.69 0.95 29.24 3.1 30.72 4.14C32.52 5.41 35.51 5.83 36.47 7.44C37.44 9.05 37.33 11.23 37.98 13.4C38.53 15.22 40.3 17.16 40.3 19.16ZM17.49 2.64Q19.2 2.83 20.15 2.83Q21.09 2.83 22.81 2.64Q25.24 2.38 26.1 2.69Q26.36 2.78 27.12 3.85Q28.3 5.49 29.28 6.19Q30.23 6.86 32.29 7.7Q34.18 8.47 34.33 8.72Q34.66 9.28 34.98 11.24Q35.28 13.1 35.59 14.12Q35.88 15.08 36.81 16.78Q37.8 18.58 37.8 19.16Q37.8 19.59 36.98 20.85Q35.92 22.47 35.59 23.57Q35.26 24.64 35.07 26.69Q34.85 28.86 34.46 29.4Q34.06 29.95 32.06 30.82Q30.18 31.65 29.28 32.28Q28.33 32.95 27.17 34.49Q26.4 35.53 26.1 35.63Q25.24 35.94 22.81 35.67Q21.09 35.49 20.15 35.49Q19.2 35.49 17.49 35.67Q15.05 35.94 14.19 35.63Q13.46 35.37 12.07 33.99Q10.94 32.87 10.23 32.33Q9.51 31.79 8.06 30.98Q6.25 29.97 5.84 29.4Q5.33 28.71 4.9 26.22Q4.59 24.46 4.32 23.57Q4.03 22.62 3.25 21.16Q2.5 19.76 2.5 19.16Q2.5 18.58 3.48 16.78Q4.41 15.08 4.7 14.12Q5.02 13.08 5.22 11.28Q5.42 9.48 5.84 8.91Q6.21 8.4 7.9 7.53Q9.46 6.72 10.23 6.14Q10.99 5.56 12.17 4.33Q13.51 2.93 14.19 2.69Q15.05 2.38 17.49 2.64Z" fill="#3A3845" fill-opacity="1.000000" fill-rule="evenodd"/>
	<path id="Vector" d="M72.22 8.9C72.34 8.9 72.45 8.95 72.54 9.05C72.62 9.15 72.67 9.29 72.67 9.43L72.67 28.71C72.67 28.85 72.62 28.99 72.54 29.09C72.46 29.19 72.34 29.25 72.23 29.25L70.04 29.25C69.93 29.25 69.81 29.19 69.73 29.09C69.65 28.99 69.6 28.85 69.6 28.71L69.6 16.17C69.43 16.34 69.25 16.5 69.07 16.65C68.55 17.09 68.02 17.46 67.51 17.82C67 18.18 66.66 18.46 66.26 18.74C65.5 19.27 64.85 19.97 64.33 20.81C63.81 21.65 63.44 22.61 63.25 23.63C63.22 23.75 63.17 23.86 63.09 23.94C63.01 24.01 62.91 24.05 62.81 24.05L60.73 24.05C60.63 24.05 60.53 24.01 60.45 23.94C60.37 23.86 60.32 23.75 60.29 23.63C60.1 22.61 59.73 21.65 59.21 20.81C58.69 19.97 58.03 19.26 57.28 18.74C56.88 18.45 56.47 18.14 56.03 17.81C55.58 17.49 54.99 17.09 54.47 16.65C54.29 16.5 54.11 16.34 53.94 16.16L53.94 28.71C53.94 28.85 53.89 28.99 53.81 29.09C53.72 29.19 53.61 29.25 53.49 29.25L51.32 29.25C51.2 29.25 51.08 29.19 51 29.09C50.92 28.99 50.87 28.85 50.87 28.71L50.87 9.44C50.87 9.29 50.92 9.16 51 9.06C51.09 8.95 51.2 8.9 51.32 8.9L53.47 8.9C53.58 8.9 53.68 8.95 53.76 9.03C53.84 9.11 53.89 9.22 53.91 9.35C54.03 10.29 54.49 12.48 56.17 13.71C56.61 14.02 57.05 14.38 57.53 14.72C58.02 15.07 58.49 15.38 58.95 15.77C59.88 16.52 60.72 17.43 61.43 18.48C61.47 18.54 61.53 18.59 61.58 18.63C61.64 18.66 61.71 18.68 61.77 18.68C61.84 18.68 61.9 18.66 61.96 18.63C62.02 18.59 62.07 18.54 62.11 18.48C62.82 17.43 63.66 16.51 64.6 15.76C65.07 15.38 65.57 15.03 66.01 14.72C66.45 14.41 66.94 14.02 67.37 13.71C69.06 12.5 69.52 10.32 69.64 9.35C69.65 9.22 69.71 9.11 69.79 9.03C69.87 8.95 69.97 8.9 70.07 8.9L72.22 8.9Z" fill="#3A3845" fill-opacity="1.000000" fill-rule="nonzero"/>
	<path id="Vector" d="M95.46 19.07C95.46 24.68 91.01 29.25 85.55 29.25C80.08 29.25 75.64 24.68 75.64 19.07C75.64 13.46 80.08 8.9 85.55 8.9C91.01 8.9 95.46 13.46 95.46 19.07ZM85.55 12.6C81.81 12.6 78.76 15.5 78.76 19.07C78.76 22.64 81.81 25.53 85.55 25.53C89.29 25.53 92.34 22.62 92.34 19.05C92.34 15.49 89.29 12.6 85.55 12.6Z" fill="#3A3845" fill-opacity="1.000000" fill-rule="nonzero"/>
	<path id="Vector" d="M118.24 19.07C118.24 24.68 113.58 29.25 107.84 29.25C102.1 29.25 97.44 24.68 97.44 19.07C97.44 13.46 102.1 8.9 107.84 8.9C113.58 8.9 118.24 13.46 118.24 19.07ZM107.84 12.6C103.91 12.6 100.71 15.5 100.71 19.07C100.71 22.64 103.91 25.53 107.84 25.53C111.77 25.53 114.97 22.62 114.97 19.05C114.97 15.49 111.76 12.6 107.84 12.6Z" fill="#3A3845" fill-opacity="1.000000" fill-rule="nonzero"/>
	<path id="Vector" d="M135.97 18.92L135.97 9.43C135.97 9.36 135.99 9.29 136.01 9.23C136.03 9.16 136.06 9.1 136.1 9.05C136.14 9 136.19 8.97 136.25 8.94C136.3 8.91 136.36 8.9 136.42 8.9L138.61 8.9C138.67 8.9 138.72 8.91 138.78 8.94C138.83 8.97 138.88 9 138.92 9.05C138.96 9.1 138.99 9.16 139.02 9.23C139.04 9.29 139.05 9.36 139.05 9.43L139.05 28.72C139.05 28.79 139.04 28.86 139.02 28.92C138.99 28.98 138.96 29.04 138.92 29.09C138.88 29.14 138.83 29.18 138.78 29.21C138.72 29.24 138.67 29.25 138.61 29.25L136.44 29.25C136.38 29.25 136.32 29.24 136.27 29.21C136.22 29.18 136.17 29.14 136.12 29.09C136.08 29.04 136.05 28.98 136.03 28.92C136.01 28.86 135.99 28.79 135.99 28.72L135.99 27.2C136 26.73 135.91 26.26 135.74 25.83C135.09 24.27 133.43 21.38 129.56 19.61C127.92 18.89 126.39 17.86 125.01 16.57C124.95 16.5 124.87 16.46 124.79 16.45C124.7 16.44 124.62 16.46 124.54 16.5C124.47 16.55 124.4 16.61 124.36 16.7C124.31 16.79 124.29 16.88 124.29 16.99L124.29 28.72C124.29 28.86 124.25 28.99 124.16 29.09C124.08 29.19 123.97 29.25 123.85 29.25L121.66 29.25C121.54 29.25 121.43 29.19 121.35 29.09C121.26 28.99 121.22 28.86 121.22 28.72L121.22 9.43C121.22 9.29 121.26 9.15 121.35 9.05C121.43 8.95 121.54 8.9 121.66 8.9L123.79 8.9C123.88 8.9 123.96 8.93 124.04 9C124.11 9.06 124.16 9.14 124.19 9.24C124.54 10.39 126.01 14.09 130.63 16.15C132.3 16.89 133.86 17.96 135.23 19.33C135.29 19.39 135.37 19.44 135.45 19.45C135.54 19.46 135.63 19.45 135.7 19.41C135.78 19.37 135.85 19.3 135.89 19.21C135.94 19.13 135.96 19.03 135.96 18.92L135.97 18.92Z" fill="#3A3845" fill-opacity="1.000000" fill-rule="nonzero"/>
	<path id="Vector" d="M142.02 27.21C142.02 26.81 142.11 26.42 142.27 26.08C142.44 25.75 142.67 25.49 142.94 25.33C143.21 25.18 143.51 25.14 143.8 25.22C144.09 25.3 144.35 25.49 144.56 25.78C144.77 26.06 144.91 26.43 144.97 26.82C145.02 27.22 144.99 27.62 144.88 28C144.77 28.37 144.58 28.69 144.33 28.91C144.09 29.13 143.8 29.25 143.5 29.25C143.31 29.25 143.12 29.2 142.94 29.09C142.76 28.99 142.59 28.84 142.46 28.65C142.32 28.46 142.21 28.24 142.13 27.99C142.06 27.75 142.02 27.48 142.02 27.21Z" fill="#3A3845" fill-opacity="1.000000" fill-rule="nonzero"/>
</svg>
