<svg width="12.000000" height="11.000000" viewBox="0 0 12 11" fill="none" xmlns="http://www.w3.org/2000/svg" xmlns:xlink="http://www.w3.org/1999/xlink">
	<desc>
			Created with Pixso.
	</desc>
	<defs/>
	<path id="Star" d="M12 4.39C11.99 4.53 11.91 4.68 11.77 4.81C11.19 5.29 10.61 5.78 10.03 6.27C9.76 6.5 9.48 6.72 9.21 6.95C9.17 6.98 9.16 7.01 9.18 7.06C9.38 7.93 9.59 8.81 9.8 9.68C9.84 9.86 9.88 10.03 9.92 10.21C9.99 10.47 9.91 10.72 9.7 10.87C9.46 11.03 9.22 11.04 8.97 10.9C8.19 10.45 7.41 10.01 6.63 9.56C6.45 9.45 6.26 9.35 6.08 9.24C6.02 9.21 5.98 9.21 5.92 9.24C4.97 9.79 4.02 10.33 3.07 10.87C2.87 10.99 2.66 11.03 2.44 10.95C2.15 10.83 1.99 10.53 2.07 10.23C2.27 9.36 2.48 8.49 2.69 7.61C2.73 7.43 2.77 7.25 2.82 7.07C2.83 7.01 2.82 6.98 2.78 6.95C2.42 6.65 2.07 6.35 1.71 6.06C1.22 5.64 0.72 5.22 0.22 4.8C0.02 4.63 -0.05 4.41 0.03 4.16C0.11 3.91 0.3 3.76 0.57 3.73C1.06 3.69 1.55 3.65 2.04 3.6C2.52 3.56 3 3.52 3.49 3.48C3.65 3.46 3.81 3.45 3.97 3.44C4.02 3.43 4.05 3.41 4.07 3.37C4.51 2.38 4.95 1.4 5.39 0.41C5.51 0.14 5.73 -0.01 6 0C6.28 0 6.48 0.13 6.59 0.37C6.88 1.03 7.18 1.69 7.47 2.35C7.62 2.69 7.77 3.02 7.92 3.36C7.94 3.41 7.98 3.43 8.03 3.44C8.42 3.47 8.81 3.5 9.2 3.54C9.76 3.59 10.33 3.64 10.89 3.68C11.07 3.7 11.25 3.72 11.43 3.73C11.76 3.77 12 4.03 12 4.39Z" fill="#C69B7B" fill-opacity="1.000000" fill-rule="evenodd"/>
</svg>
