<svg width="18.000000" height="16.000000" viewBox="0 0 18 16" fill="none" xmlns="http://www.w3.org/2000/svg" xmlns:xlink="http://www.w3.org/1999/xlink">
	<desc>
			Created with Pixso.
	</desc>
	<defs/>
	<path id="Twitter" d="M12.02 0L12.02 0L12.87 0L13.17 0.06C13.38 0.11 13.57 0.16 13.73 0.23C13.9 0.31 14.06 0.39 14.22 0.48C14.38 0.58 14.52 0.67 14.65 0.77C14.78 0.87 14.89 0.97 14.99 1.08C15.09 1.19 15.24 1.22 15.46 1.17C15.67 1.11 15.89 1.04 16.14 0.94C16.38 0.85 16.62 0.74 16.86 0.63C17.1 0.51 17.24 0.43 17.29 0.4C17.34 0.37 17.37 0.35 17.37 0.35L17.38 0.34L17.39 0.33L17.41 0.32L17.43 0.31L17.44 0.31L17.45 0.3L17.45 0.3L17.46 0.29L17.46 0.29L17.48 0.28L17.49 0.28L17.49 0.31L17.48 0.33L17.48 0.36L17.47 0.39L17.46 0.4L17.45 0.42L17.44 0.45C17.44 0.47 17.43 0.49 17.43 0.52C17.42 0.55 17.37 0.67 17.27 0.87C17.18 1.08 17.05 1.29 16.91 1.5C16.76 1.72 16.63 1.88 16.51 1.99C16.4 2.1 16.32 2.17 16.28 2.22C16.25 2.26 16.2 2.3 16.14 2.34L16.06 2.4L16.05 2.41L16.03 2.42L16.03 2.42L16.02 2.43L16.02 2.43L16.01 2.44L16 2.45L15.98 2.45L15.98 2.46L15.97 2.46L15.97 2.47L15.97 2.47L15.96 2.48L15.96 2.48L15.95 2.48L15.95 2.49L16.03 2.49L16.49 2.38C16.79 2.31 17.08 2.23 17.35 2.13L17.79 1.97L17.84 1.95L17.87 1.94L17.88 1.93L17.9 1.92L17.91 1.91L17.93 1.9L17.96 1.9L18 1.9L18 1.93L17.99 1.93L17.98 1.94L17.98 1.94L17.97 1.95L17.97 1.95L17.96 1.96L17.96 1.96L17.95 1.97L17.95 1.97L17.95 1.97L17.94 1.98L17.94 1.98L17.93 2L17.92 2.02L17.92 2.02C17.91 2.03 17.85 2.13 17.71 2.32C17.58 2.52 17.5 2.62 17.49 2.63C17.48 2.63 17.47 2.65 17.45 2.68C17.43 2.71 17.31 2.85 17.1 3.08C16.89 3.31 16.68 3.51 16.48 3.69C16.28 3.87 16.18 4.1 16.17 4.36C16.17 4.62 16.16 4.92 16.14 5.25C16.12 5.58 16.07 5.94 16.01 6.33C15.96 6.71 15.86 7.15 15.74 7.63C15.61 8.12 15.46 8.59 15.28 9.05C15.11 9.51 14.92 9.93 14.72 10.29C14.53 10.66 14.35 10.97 14.19 11.23C14.03 11.48 13.86 11.72 13.69 11.95C13.53 12.17 13.31 12.42 13.06 12.71C12.8 12.99 12.66 13.14 12.64 13.17C12.61 13.19 12.5 13.29 12.32 13.46C12.13 13.63 11.93 13.8 11.72 13.97C11.5 14.14 11.31 14.28 11.13 14.39C10.95 14.5 10.74 14.63 10.48 14.77C10.23 14.92 9.96 15.05 9.67 15.18C9.38 15.3 9.07 15.42 8.74 15.52C8.42 15.63 8.11 15.71 7.8 15.77C7.5 15.83 7.16 15.88 6.77 15.92L6.2 15.99L6.2 16L5.14 16L5.14 15.99L5 15.98C4.91 15.97 4.83 15.97 4.78 15.96C4.72 15.95 4.49 15.92 4.1 15.86C3.71 15.8 3.41 15.74 3.18 15.68C2.96 15.63 2.63 15.51 2.19 15.35C1.76 15.18 1.38 15.01 1.07 14.84C0.76 14.68 0.56 14.57 0.49 14.52C0.41 14.48 0.32 14.43 0.22 14.36L0.08 14.26L0.07 14.26L0.07 14.25L0.06 14.25L0.06 14.25L0.04 14.24L0.03 14.23L0.02 14.22L0.02 14.22L0.01 14.22L0.01 14.21L0.01 14.21L0 14.2L0 14.2L0 14.17L0.01 14.17L0.03 14.17L0.1 14.18C0.15 14.19 0.28 14.2 0.5 14.21C0.71 14.22 0.94 14.22 1.19 14.21C1.43 14.2 1.68 14.17 1.93 14.13C2.19 14.09 2.49 14.02 2.84 13.92C3.18 13.82 3.5 13.7 3.79 13.56C4.08 13.42 4.28 13.31 4.41 13.25C4.53 13.18 4.71 13.05 4.96 12.87L5.33 12.59L5.34 12.59L5.34 12.59L5.35 12.58L5.35 12.58L5.35 12.57L5.36 12.57L5.36 12.56L5.37 12.56L5.38 12.55L5.4 12.55L5.4 12.53L5.41 12.51L5.41 12.51L5.42 12.51L5.29 12.5C5.2 12.49 5.12 12.48 5.04 12.48C4.95 12.47 4.83 12.45 4.65 12.4C4.48 12.35 4.29 12.28 4.09 12.19C3.89 12.09 3.7 11.98 3.51 11.85C3.32 11.72 3.18 11.61 3.1 11.52C3.02 11.44 2.91 11.32 2.77 11.16C2.64 11 2.53 10.84 2.43 10.68C2.33 10.51 2.24 10.32 2.15 10.1L2.02 9.78L2.01 9.75L2 9.73L2 9.71L1.99 9.69L2.02 9.69L2.04 9.7L2.22 9.73C2.34 9.74 2.52 9.75 2.78 9.74C3.03 9.74 3.21 9.73 3.31 9.71C3.4 9.69 3.46 9.68 3.48 9.67L3.52 9.66L3.56 9.66L3.6 9.65L3.6 9.64L3.61 9.64L3.61 9.63L3.61 9.63L3.58 9.62L3.55 9.61L3.52 9.6L3.48 9.59L3.45 9.58C3.43 9.58 3.39 9.57 3.34 9.55C3.28 9.53 3.14 9.47 2.9 9.35C2.66 9.24 2.47 9.13 2.33 9.03C2.19 8.92 2.06 8.8 1.93 8.68C1.8 8.55 1.66 8.38 1.51 8.18C1.36 7.98 1.23 7.75 1.11 7.48C0.99 7.21 0.9 6.96 0.84 6.72C0.78 6.48 0.74 6.23 0.72 5.98L0.69 5.61L0.71 5.61L0.73 5.62L0.74 5.62L0.76 5.63L0.77 5.64L0.79 5.65L1.04 5.78C1.21 5.86 1.42 5.93 1.67 5.99C1.92 6.05 2.06 6.08 2.11 6.09L2.19 6.09L2.33 6.09L2.33 6.09L2.32 6.09L2.32 6.08L2.32 6.08L2.31 6.07L2.31 6.07L2.3 6.06L2.3 6.06L2.28 6.05L2.27 6.04L2.26 6.04L2.26 6.03L2.25 6.03L2.25 6.02L2.24 6.02L2.22 6.01L2.22 6C2.21 6 2.17 5.96 2.08 5.89C1.99 5.81 1.89 5.72 1.8 5.6C1.7 5.48 1.6 5.35 1.5 5.22C1.41 5.09 1.32 4.95 1.25 4.81C1.17 4.66 1.09 4.47 1 4.24C0.92 4.02 0.86 3.79 0.81 3.56C0.77 3.32 0.75 3.1 0.74 2.87C0.74 2.65 0.74 2.45 0.76 2.29C0.77 2.13 0.81 1.95 0.86 1.75C0.9 1.55 0.97 1.34 1.07 1.11L1.2 0.78L1.21 0.75L1.22 0.72L1.23 0.72L1.23 0.71L1.23 0.71L1.24 0.71L1.24 0.71L1.25 0.71L1.25 0.72L1.25 0.72L1.26 0.73L1.26 0.73L1.26 0.74L1.27 0.74L1.28 0.76L1.29 0.78L1.29 0.78L1.29 0.79L1.51 1.05C1.66 1.23 1.83 1.43 2.03 1.65C2.23 1.87 2.34 1.98 2.37 1.99C2.39 2 2.41 2.02 2.45 2.07C2.48 2.11 2.59 2.22 2.77 2.38C2.95 2.55 3.2 2.74 3.49 2.96C3.79 3.18 4.12 3.4 4.48 3.61C4.85 3.82 5.24 4.01 5.65 4.19C6.07 4.36 6.36 4.47 6.53 4.52C6.7 4.58 6.98 4.64 7.39 4.73C7.79 4.81 8.1 4.86 8.31 4.89C8.51 4.91 8.65 4.92 8.73 4.93L8.84 4.93L8.84 4.91L8.83 4.88L8.8 4.66C8.78 4.51 8.77 4.3 8.77 4.04C8.77 3.77 8.79 3.52 8.82 3.3C8.86 3.07 8.92 2.85 9 2.61C9.07 2.38 9.14 2.2 9.22 2.06C9.29 1.92 9.39 1.76 9.51 1.58C9.62 1.41 9.78 1.22 9.97 1.03C10.16 0.84 10.37 0.68 10.62 0.53C10.86 0.38 11.09 0.27 11.29 0.19C11.5 0.11 11.67 0.06 11.81 0.04C11.95 0.02 12.02 0 12.02 0Z" fill="#C69B7B" fill-opacity="1.000000" fill-rule="evenodd"/>
</svg>
